<mxfile host="app.diagrams.net" modified="2022-04-22T05:45:25.406Z" agent="5.0 (Macintosh; Intel Mac OS X 10_15_7) AppleWebKit/537.36 (KHTML, like Gecko) Chrome/100.0.4896.127 Safari/537.36" etag="7kkl4boZx3fzpV3U4MpG" version="17.4.6" type="github">
  <diagram id="6I0OCvxSQrVGMHxT2VVA" name="Page-1">
    <mxGraphModel dx="1595" dy="997" grid="1" gridSize="10" guides="1" tooltips="1" connect="1" arrows="1" fold="1" page="1" pageScale="1" pageWidth="850" pageHeight="1100" math="0" shadow="0">
      <root>
        <mxCell id="0" />
        <mxCell id="1" parent="0" />
        <mxCell id="dKdSaXE48SgPbhcamS2K-63" value="Title" style="text;strokeColor=none;fillColor=none;html=1;fontSize=24;fontStyle=1;verticalAlign=middle;align=center;" parent="1" vertex="1">
          <mxGeometry x="50" y="70" width="1590" height="40" as="geometry" />
        </mxCell>
        <mxCell id="hLtGLxRxdfvsyZPbI6LH-1" value="SSN&lt;br&gt;int" style="rounded=0;whiteSpace=wrap;html=1;sketch=0;fontColor=#5AA9E6;strokeColor=#FF6392;fillColor=#FFE45E;" vertex="1" parent="1">
          <mxGeometry x="40" y="220" width="120" height="60" as="geometry" />
        </mxCell>
        <mxCell id="hLtGLxRxdfvsyZPbI6LH-2" value="" style="shape=image;verticalLabelPosition=bottom;verticalAlign=top;imageAspect=0;aspect=fixed;image=data:image/svg+xml,PHN2ZyB4bWxucz0iaHR0cDovL3d3dy53My5vcmcvMjAwMC9zdmciIHZlcnNpb249IjEiIHZpZXdCb3g9IjAgMCA0OCA0OCIgZW5hYmxlLWJhY2tncm91bmQ9Im5ldyAwIDAgNDggNDgiPiYjeGE7ICAgIDxnIGZpbGw9IiMzNzQ3NEYiPiYjeGE7ICAgICAgICA8cmVjdCB4PSI5IiB5PSIyMCIgd2lkdGg9IjMwIiBoZWlnaHQ9IjEzIi8+JiN4YTsgICAgICAgIDxlbGxpcHNlIGN4PSIyNCIgY3k9IjMzIiByeD0iMTUiIHJ5PSI2Ii8+JiN4YTsgICAgPC9nPiYjeGE7ICAgIDxwYXRoIGZpbGw9IiM3ODkwOUMiIGQ9Ik0yMy4xLDguMkwwLjYsMTguMWMtMC44LDAuNC0wLjgsMS41LDAsMS45bDIyLjUsOS45YzAuNiwwLjIsMS4yLDAuMiwxLjgsMGwyMi41LTkuOWMwLjgtMC40LDAuOC0xLjUsMC0xLjkgTDI0LjksOC4yQzI0LjMsNy45LDIzLjcsNy45LDIzLjEsOC4yeiIvPiYjeGE7ICAgIDxnIGZpbGw9IiMzNzQ3NEYiPiYjeGE7ICAgICAgICA8cGF0aCBkPSJNNDMuMiwyMC40bC0yMC0zLjRjLTAuNS0wLjEtMS4xLDAuMy0xLjIsMC44Yy0wLjEsMC41LDAuMywxLjEsMC44LDEuMkw0MiwyMi4yVjM3YzAsMC42LDAuNCwxLDEsMSBzMS0wLjQsMS0xVjIxLjRDNDQsMjAuOSw0My42LDIwLjUsNDMuMiwyMC40eiIvPiYjeGE7ICAgICAgICA8Y2lyY2xlIGN4PSI0MyIgY3k9IjM3IiByPSIyIi8+JiN4YTsgICAgICAgIDxwYXRoIGQ9Ik00Niw0MGMwLDEuNy0zLDYtMyw2cy0zLTQuMy0zLTZzMS4zLTMsMy0zUzQ2LDM4LjMsNDYsNDB6Ii8+JiN4YTsgICAgPC9nPiYjeGE7PC9zdmc+;rounded=0;sketch=0;fontColor=#5AA9E6;strokeColor=#FF6392;fillColor=#FFE45E;" vertex="1" parent="1">
          <mxGeometry x="60" y="172" width="48" height="48" as="geometry" />
        </mxCell>
        <mxCell id="hLtGLxRxdfvsyZPbI6LH-8" value="MAJOR&lt;br&gt;nvarchar(100)" style="rounded=0;whiteSpace=wrap;html=1;sketch=0;fontColor=#5AA9E6;strokeColor=#FF6392;fillColor=#FFE45E;" vertex="1" parent="1">
          <mxGeometry x="360" y="220" width="120" height="60" as="geometry" />
        </mxCell>
        <mxCell id="hLtGLxRxdfvsyZPbI6LH-9" value="Bdate&lt;br&gt;date" style="rounded=1;whiteSpace=wrap;html=1;sketch=0;fontColor=#5AA9E6;strokeColor=#FF6392;fillColor=#FFE45E;" vertex="1" parent="1">
          <mxGeometry x="520" y="220" width="120" height="60" as="geometry" />
        </mxCell>
        <mxCell id="hLtGLxRxdfvsyZPbI6LH-10" value="NAME&lt;br&gt;nvarchar(100)" style="rounded=0;whiteSpace=wrap;html=1;sketch=0;fontColor=#5AA9E6;strokeColor=#FF6392;fillColor=#FFE45E;" vertex="1" parent="1">
          <mxGeometry x="200" y="220" width="120" height="60" as="geometry" />
        </mxCell>
        <mxCell id="hLtGLxRxdfvsyZPbI6LH-11" value="STUDENT" style="ellipse;whiteSpace=wrap;html=1;rounded=0;sketch=0;fontColor=#5AA9E6;strokeColor=#FF6392;fillColor=#FFE45E;" vertex="1" parent="1">
          <mxGeometry x="130" y="130" width="120" height="80" as="geometry" />
        </mxCell>
        <mxCell id="hLtGLxRxdfvsyZPbI6LH-12" value="" style="shape=image;verticalLabelPosition=bottom;verticalAlign=top;imageAspect=0;aspect=fixed;image=data:image/svg+xml,PHN2ZyB4bWxucz0iaHR0cDovL3d3dy53My5vcmcvMjAwMC9zdmciIHZlcnNpb249IjEiIHZpZXdCb3g9IjAgMCA0OCA0OCIgZW5hYmxlLWJhY2tncm91bmQ9Im5ldyAwIDAgNDggNDgiPiYjeGE7ICAgIDxjaXJjbGUgZmlsbD0iI0ZGOTgwMCIgY3g9IjI4IiBjeT0iOSIgcj0iNSIvPiYjeGE7ICAgIDxwYXRoIGZpbGw9IiMwMDc5NkIiIGQ9Ik0yOSwyNy4zbC05LjItNC4xYy0xLTAuNS0xLjUsMS0yLDJjLTAuNSwxLTQuMSw3LjItMy44LDguM2MwLjMsMC45LDEuMSwxLjQsMS45LDEuNGMwLjIsMCwwLjQsMCwwLjYtMC4xIEwyOC44LDMxYzAuOC0wLjIsMS40LTEsMS40LTEuOEMzMC4yLDI4LjQsMjkuNywyNy42LDI5LDI3LjN6Ii8+JiN4YTsgICAgPHBhdGggZmlsbD0iIzAwOTY4OCIgZD0iTTI2LjgsMTUuMmwtMi4yLTFjLTEuMy0wLjYtMi45LDAtMy41LDEuM0w5LjIsNDEuMWMtMC41LDEsMCwyLjIsMSwyLjdjMC4zLDAuMSwwLjYsMC4yLDAuOSwwLjIgYzAuOCwwLDEuNS0wLjQsMS44LTEuMWMwLDAsOS42LTEzLjMsMTAuNC0xNC45czQuOS05LjMsNC45LTkuM0MyOC43LDE3LjQsMjguMiwxNS44LDI2LjgsMTUuMnoiLz4mI3hhOyAgICA8cGF0aCBmaWxsPSIjRkY5ODAwIiBkPSJNNDAuNSwxNS43Yy0wLjctMC44LTItMS0yLjgtMC4zbC01LDQuMmwtNi40LTMuNWMtMS4xLTAuNi0yLjYtMC40LTMuMywwLjljLTAuOCwxLjMtMC40LDIuOSwwLjgsMy40IGw4LjMsMy40YzAuMywwLjEsMC42LDAuMiwwLjksMC4yYzAuNSwwLDAuOS0wLjIsMS4zLTAuNWw2LTVDNDEuMSwxNy44LDQxLjIsMTYuNiw0MC41LDE1Ljd6Ii8+JiN4YTsgICAgPHBhdGggZmlsbD0iI0ZGOTgwMCIgZD0iTTExLjcsMjMuMWwzLjQtNS4xbDQuNiwwLjZsMS41LTMuMWMwLjQtMC45LDEuMi0xLjQsMi4xLTEuNWMtMC4xLDAtMC4yLDAtMC4yLDBoLTljLTAuNywwLTEuMywwLjMtMS43LDAuOSBsLTQsNmMtMC42LDAuOS0wLjQsMi4yLDAuNiwyLjhDOS4yLDIzLjksOS42LDI0LDEwLDI0QzEwLjYsMjQsMTEuMywyMy43LDExLjcsMjMuMXoiLz4mI3hhOzwvc3ZnPg==;rounded=0;sketch=0;fontColor=#5AA9E6;strokeColor=#FF6392;fillColor=#FFE45E;" vertex="1" parent="1">
          <mxGeometry x="70" y="350" width="48" height="48" as="geometry" />
        </mxCell>
        <mxCell id="hLtGLxRxdfvsyZPbI6LH-13" value="COURSE" style="ellipse;whiteSpace=wrap;html=1;rounded=0;sketch=0;strokeColor=#82b366;fillColor=#d5e8d4;" vertex="1" parent="1">
          <mxGeometry x="130" y="318" width="120" height="80" as="geometry" />
        </mxCell>
        <mxCell id="hLtGLxRxdfvsyZPbI6LH-14" value="COURSE#&lt;br&gt;int" style="rounded=0;whiteSpace=wrap;html=1;sketch=0;strokeColor=#82b366;fillColor=#d5e8d4;" vertex="1" parent="1">
          <mxGeometry x="40" y="430" width="120" height="60" as="geometry" />
        </mxCell>
        <mxCell id="hLtGLxRxdfvsyZPbI6LH-15" value="Cname&lt;br&gt;nvarchar(100)" style="rounded=0;whiteSpace=wrap;html=1;sketch=0;strokeColor=#82b366;fillColor=#d5e8d4;" vertex="1" parent="1">
          <mxGeometry x="230" y="430" width="120" height="60" as="geometry" />
        </mxCell>
        <mxCell id="hLtGLxRxdfvsyZPbI6LH-16" value="Dept&lt;br&gt;nvarchar(100" style="rounded=0;whiteSpace=wrap;html=1;sketch=0;strokeColor=#82b366;fillColor=#d5e8d4;" vertex="1" parent="1">
          <mxGeometry x="425" y="430" width="120" height="60" as="geometry" />
        </mxCell>
        <mxCell id="hLtGLxRxdfvsyZPbI6LH-17" value="ENROLL" style="ellipse;whiteSpace=wrap;rounded=0;sketch=0;strokeColor=#10739e;fillColor=#b1ddf0;" vertex="1" parent="1">
          <mxGeometry x="120" y="540" width="120" height="80" as="geometry" />
        </mxCell>
        <mxCell id="hLtGLxRxdfvsyZPbI6LH-18" value="SSN#&lt;br&gt;int" style="rounded=0;whiteSpace=wrap;html=1;sketch=0;strokeColor=#0e8088;fillColor=#b0e3e6;shadow=1;" vertex="1" parent="1">
          <mxGeometry x="34" y="660" width="120" height="60" as="geometry" />
        </mxCell>
        <mxCell id="hLtGLxRxdfvsyZPbI6LH-19" value="Course#&lt;br&gt;int" style="rounded=0;whiteSpace=wrap;html=1;sketch=0;strokeColor=#0e8088;fillColor=#b0e3e6;" vertex="1" parent="1">
          <mxGeometry x="210" y="660" width="120" height="60" as="geometry" />
        </mxCell>
        <mxCell id="hLtGLxRxdfvsyZPbI6LH-20" value="Quarter&lt;span style=&quot;white-space: pre&quot;&gt;	&lt;/span&gt;&lt;br&gt;Nvarchar(100)" style="rounded=0;whiteSpace=wrap;html=1;sketch=0;strokeColor=#10739e;fillColor=#b1ddf0;" vertex="1" parent="1">
          <mxGeometry x="380" y="660" width="120" height="60" as="geometry" />
        </mxCell>
        <mxCell id="hLtGLxRxdfvsyZPbI6LH-21" value="Grade&lt;br&gt;int" style="rounded=0;whiteSpace=wrap;html=1;sketch=0;strokeColor=#10739e;fillColor=#b1ddf0;" vertex="1" parent="1">
          <mxGeometry x="560" y="660" width="120" height="60" as="geometry" />
        </mxCell>
        <mxCell id="hLtGLxRxdfvsyZPbI6LH-22" value="TEXT" style="ellipse;whiteSpace=wrap;html=1;rounded=0;sketch=0;strokeColor=#b85450;fillColor=#f8cecc;" vertex="1" parent="1">
          <mxGeometry x="960" y="530" width="120" height="80" as="geometry" />
        </mxCell>
        <mxCell id="hLtGLxRxdfvsyZPbI6LH-23" value="Book_ISBN#&lt;br&gt;int" style="rounded=0;whiteSpace=wrap;html=1;sketch=0;strokeColor=#b85450;fillColor=#f8cecc;" vertex="1" parent="1">
          <mxGeometry x="890" y="670" width="120" height="60" as="geometry" />
        </mxCell>
        <mxCell id="hLtGLxRxdfvsyZPbI6LH-24" value="Book_Title&lt;br&gt;nvarchar(100)" style="rounded=0;whiteSpace=wrap;html=1;sketch=0;strokeColor=#b85450;fillColor=#f8cecc;" vertex="1" parent="1">
          <mxGeometry x="1100" y="670" width="120" height="60" as="geometry" />
        </mxCell>
        <mxCell id="hLtGLxRxdfvsyZPbI6LH-25" value="Publisher&lt;br&gt;nvarchar(100)" style="rounded=0;whiteSpace=wrap;html=1;sketch=0;strokeColor=#b85450;fillColor=#f8cecc;" vertex="1" parent="1">
          <mxGeometry x="1300" y="670" width="120" height="60" as="geometry" />
        </mxCell>
        <mxCell id="hLtGLxRxdfvsyZPbI6LH-26" value="Author&lt;br&gt;Nvarchar(100)" style="rounded=0;whiteSpace=wrap;html=1;sketch=0;strokeColor=#b85450;fillColor=#f8cecc;" vertex="1" parent="1">
          <mxGeometry x="1510" y="670" width="120" height="60" as="geometry" />
        </mxCell>
        <mxCell id="hLtGLxRxdfvsyZPbI6LH-27" value="BOOK_ADPTION" style="ellipse;whiteSpace=wrap;html=1;rounded=0;sketch=0;strokeColor=#6c8ebf;fillColor=#dae8fc;" vertex="1" parent="1">
          <mxGeometry x="990" y="120" width="120" height="80" as="geometry" />
        </mxCell>
        <mxCell id="hLtGLxRxdfvsyZPbI6LH-28" value="Course#&lt;br&gt;int" style="rounded=0;whiteSpace=wrap;html=1;sketch=0;strokeColor=#6c8ebf;fillColor=#dae8fc;" vertex="1" parent="1">
          <mxGeometry x="890" y="270" width="120" height="60" as="geometry" />
        </mxCell>
        <mxCell id="hLtGLxRxdfvsyZPbI6LH-29" value="Quarter&lt;span style=&quot;white-space: pre&quot;&gt;	&lt;/span&gt;&lt;br&gt;nvarchar(100)" style="rounded=0;whiteSpace=wrap;html=1;sketch=0;strokeColor=#6c8ebf;fillColor=#dae8fc;" vertex="1" parent="1">
          <mxGeometry x="1139" y="270" width="120" height="60" as="geometry" />
        </mxCell>
        <mxCell id="hLtGLxRxdfvsyZPbI6LH-30" value="Book_ISBN#&lt;br&gt;Nvarchar(100)" style="rounded=0;whiteSpace=wrap;html=1;sketch=0;strokeColor=#6c8ebf;fillColor=#dae8fc;" vertex="1" parent="1">
          <mxGeometry x="1370" y="270" width="120" height="60" as="geometry" />
        </mxCell>
        <mxCell id="hLtGLxRxdfvsyZPbI6LH-44" value="" style="shape=image;verticalLabelPosition=bottom;verticalAlign=top;imageAspect=0;aspect=fixed;image=data:image/svg+xml,PHN2ZyB4bWxucz0iaHR0cDovL3d3dy53My5vcmcvMjAwMC9zdmciIHZlcnNpb249IjEiIHZpZXdCb3g9IjAgMCA0OCA0OCIgZW5hYmxlLWJhY2tncm91bmQ9Im5ldyAwIDAgNDggNDgiPiYjeGE7ICAgIDxwYXRoIGZpbGw9IiNGRkEwMDAiIGQ9Ik0zOCwxMkgyMmwtNC00SDhjLTIuMiwwLTQsMS44LTQsNHYyNGMwLDIuMiwxLjgsNCw0LDRoMzFjMS43LDAsMy0xLjMsMy0zVjE2QzQyLDEzLjgsNDAuMiwxMiwzOCwxMnoiLz4mI3hhOyAgICA8cGF0aCBmaWxsPSIjRkZDQTI4IiBkPSJNNDIuMiwxOEgxNS4zYy0xLjksMC0zLjYsMS40LTMuOSwzLjNMOCw0MGgzMS43YzEuOSwwLDMuNi0xLjQsMy45LTMuM2wyLjUtMTRDNDYuNiwyMC4zLDQ0LjcsMTgsNDIuMiwxOHoiLz4mI3hhOzwvc3ZnPg==;rounded=0;sketch=0;fontColor=#5AA9E6;strokeColor=#FF6392;fillColor=#FFE45E;html=0;" vertex="1" parent="1">
          <mxGeometry x="890" y="116" width="88" height="88" as="geometry" />
        </mxCell>
        <mxCell id="hLtGLxRxdfvsyZPbI6LH-45" value="" style="shape=image;verticalLabelPosition=bottom;verticalAlign=top;imageAspect=0;aspect=fixed;image=data:image/svg+xml,PHN2ZyB4bWxucz0iaHR0cDovL3d3dy53My5vcmcvMjAwMC9zdmciIHZlcnNpb249IjEiIHZpZXdCb3g9IjAgMCA0OCA0OCIgZW5hYmxlLWJhY2tncm91bmQ9Im5ldyAwIDAgNDggNDgiPiYjeGE7ICAgIDxyZWN0IHg9IjEyLjMiIHk9IjEyLjMiIHRyYW5zZm9ybT0ibWF0cml4KC45NDggLjMxOCAtLjMxOCAuOTQ4IDkuNzI1IC02Ljk5NCkiIGZpbGw9IiM2NEI1RjYiIHdpZHRoPSIyOCIgaGVpZ2h0PSIyOCIvPiYjeGE7ICAgIDxyZWN0IHg9IjE1LjYiIHk9IjE1LjQiIHRyYW5zZm9ybT0ibWF0cml4KC45NTEgLjMxIC0uMzEgLjk1MSA5LjE3NiAtNi45NzcpIiBmaWxsPSIjMUU4OEU1IiB3aWR0aD0iMjIiIGhlaWdodD0iMjAiLz4mI3hhOyAgICA8cmVjdCB4PSI4LjEiIHk9IjguMSIgdHJhbnNmb3JtPSJtYXRyaXgoLjk4MyAuMTgxIC0uMTgxIC45ODMgNC4zODUgLTMuNjUpIiBmaWxsPSIjOTBDQUY5IiB3aWR0aD0iMjgiIGhlaWdodD0iMjgiLz4mI3hhOyAgICA8cmVjdCB4PSIxMS4zIiB5PSIxMS4yIiB0cmFuc2Zvcm09Im1hdHJpeCguOTg1IC4xNzUgLS4xNzUgLjk4NSA0LjA0OCAtMy41NjYpIiBmaWxsPSIjNDJBNUY1IiB3aWR0aD0iMjIiIGhlaWdodD0iMjAiLz4mI3hhOyAgICA8cmVjdCB4PSI0IiB5PSI0IiBmaWxsPSIjQkJERUZCIiB3aWR0aD0iMjgiIGhlaWdodD0iMjgiLz4mI3hhOyAgICA8cmVjdCB4PSI3IiB5PSI3IiBmaWxsPSIjNENBRjUwIiB3aWR0aD0iMjIiIGhlaWdodD0iMjAiLz4mI3hhOyAgICA8cGF0aCBmaWxsPSIjZmZmIiBkPSJNMTYsMTNjMC0xLjEsMC45LTIsMi0yczIsMC45LDIsMnMtMiw0LTIsNFMxNiwxNC4xLDE2LDEzeiIvPiYjeGE7ICAgIDxwYXRoIGZpbGw9IiNmZmYiIGQ9Ik0yMCwyMWMwLDEuMS0wLjksMi0yLDJzLTItMC45LTItMnMyLTQsMi00UzIwLDE5LjksMjAsMjF6Ii8+JiN4YTsgICAgPHBhdGggZmlsbD0iI2ZmZiIgZD0iTTEzLjUsMTYuN2MtMS0wLjYtMS4zLTEuOC0wLjctMi43YzAuNi0xLDEuOC0xLjMsMi43LTAuN2MxLDAuNiwyLjUsMy43LDIuNSwzLjdTMTQuNSwxNy4zLDEzLjUsMTYuN3oiLz4mI3hhOyAgICA8cGF0aCBmaWxsPSIjZmZmIiBkPSJNMjIuNSwxNy4zYzEsMC42LDEuMywxLjgsMC43LDIuN2MtMC42LDEtMS44LDEuMy0yLjcsMC43QzE5LjUsMjAuMiwxOCwxNywxOCwxN1MyMS41LDE2LjcsMjIuNSwxNy4zeiIvPiYjeGE7ICAgIDxwYXRoIGZpbGw9IiNmZmYiIGQ9Ik0yMi41LDE2LjdjMS0wLjYsMS4zLTEuOCwwLjctMi43Yy0wLjYtMS0xLjgtMS4zLTIuNy0wLjdDMTkuNSwxMy44LDE4LDE3LDE4LDE3UzIxLjUsMTcuMywyMi41LDE2Ljd6Ii8+JiN4YTsgICAgPHBhdGggZmlsbD0iI2ZmZiIgZD0iTTEzLjUsMTcuM2MtMSwwLjYtMS4zLDEuOC0wLjcsMi43YzAuNiwxLDEuOCwxLjMsMi43LDAuN2MxLTAuNiwyLjUtMy43LDIuNS0zLjdTMTQuNSwxNi43LDEzLjUsMTcuM3oiLz4mI3hhOyAgICA8Y2lyY2xlIGZpbGw9IiNGRkMxMDciIGN4PSIxOCIgY3k9IjE3IiByPSIyIi8+JiN4YTs8L3N2Zz4=;rounded=0;sketch=0;fontColor=#5AA9E6;strokeColor=#FF6392;fillColor=#FFE45E;html=0;" vertex="1" parent="1">
          <mxGeometry x="850" y="512" width="88" height="88" as="geometry" />
        </mxCell>
        <mxCell id="hLtGLxRxdfvsyZPbI6LH-46" value="" style="shape=image;verticalLabelPosition=bottom;verticalAlign=top;imageAspect=0;aspect=fixed;image=data:image/svg+xml,PHN2ZyB4bWxucz0iaHR0cDovL3d3dy53My5vcmcvMjAwMC9zdmciIHZlcnNpb249IjEiIHZpZXdCb3g9IjAgMCA0OCA0OCIgZW5hYmxlLWJhY2tncm91bmQ9Im5ldyAwIDAgNDggNDgiPiYjeGE7ICAgIDxnIGZpbGw9IiMyMTk2RjMiPiYjeGE7ICAgICAgICA8cmVjdCB4PSI2IiB5PSIyMiIgd2lkdGg9IjQiIGhlaWdodD0iNCIvPiYjeGE7ICAgICAgICA8cmVjdCB4PSI2IiB5PSIxNCIgd2lkdGg9IjQiIGhlaWdodD0iNCIvPiYjeGE7ICAgICAgICA8cmVjdCB4PSI2IiB5PSIzMCIgd2lkdGg9IjQiIGhlaWdodD0iNCIvPiYjeGE7ICAgICAgICA8cmVjdCB4PSI2IiB5PSI2IiB3aWR0aD0iNCIgaGVpZ2h0PSI0Ii8+JiN4YTsgICAgICAgIDxyZWN0IHg9IjYiIHk9IjM4IiB3aWR0aD0iNCIgaGVpZ2h0PSI0Ii8+JiN4YTsgICAgPC9nPiYjeGE7ICAgIDxnIGZpbGw9IiMyMTk2RjMiPiYjeGE7ICAgICAgICA8cmVjdCB4PSIxNCIgeT0iMjIiIHdpZHRoPSIyOCIgaGVpZ2h0PSI0Ii8+JiN4YTsgICAgICAgIDxyZWN0IHg9IjE0IiB5PSIxNCIgd2lkdGg9IjI4IiBoZWlnaHQ9IjQiLz4mI3hhOyAgICAgICAgPHJlY3QgeD0iMTQiIHk9IjMwIiB3aWR0aD0iMjgiIGhlaWdodD0iNCIvPiYjeGE7ICAgICAgICA8cmVjdCB4PSIxNCIgeT0iNiIgd2lkdGg9IjI4IiBoZWlnaHQ9IjQiLz4mI3hhOyAgICAgICAgPHJlY3QgeD0iMTQiIHk9IjM4IiB3aWR0aD0iMjgiIGhlaWdodD0iNCIvPiYjeGE7ICAgIDwvZz4mI3hhOzwvc3ZnPg==;rounded=0;shadow=1;sketch=0;fontColor=#5AA9E6;strokeColor=#FF6392;fillColor=#FFE45E;html=0;" vertex="1" parent="1">
          <mxGeometry x="40" y="540" width="64" height="64" as="geometry" />
        </mxCell>
      </root>
    </mxGraphModel>
  </diagram>
</mxfile>
